<svg width="101" height="92" viewBox="0 0 101 92" fill="none" xmlns="http://www.w3.org/2000/svg">
<g clip-path="url(#clip0)">
<path d="M10.4593 2.91711C7.85238 5.29169 5.81223 7.98692 4.3386 10.8635C-0.967095 21.2206 6.61515 33.0443 16.0011 41.5941C27.9942 52.5184 41.8968 53.402 53.8899 42.4777L10.4593 2.91711Z" fill="#E28424"/>
<path d="M4.33919 10.8639C9.39329 12.0878 14.1719 14.504 18.136 18.1149C27.5222 26.6647 29.5618 39.3716 24.2561 49.7287C19.2018 48.5048 14.4233 46.0885 10.4592 42.4777C1.07305 33.9281 -0.966309 21.221 4.33919 10.8639Z" fill="#FBE2DA"/>
<path d="M90.5407 2.91711C93.1476 5.29169 95.1878 7.98693 96.6614 10.8635C101.967 21.2206 88.3816 33.9279 78.9954 42.4777C67.0023 53.4021 59.103 53.4021 47.1101 42.4777L90.5407 2.91711Z" fill="#E49542"/>
<path d="M96.6606 10.8639C91.6065 12.0878 86.8279 14.504 82.8638 18.1149C73.4776 26.6647 71.438 39.3716 76.7437 49.7287C81.798 48.5048 86.5765 46.0885 90.5406 42.4777C99.9268 33.9281 101.966 21.221 96.6606 10.8639Z" fill="#FFF6F4"/>
<path d="M57.3926 24.8882H44.9252C30.1666 24.8882 17.4767 34.4131 14.6552 47.6085L9.28003 72.7464C7.46937 81.2137 14.5883 89.083 24.0585 89.083H78.259C87.7295 89.083 94.8482 81.2137 93.0375 72.7464L87.6624 47.6085C84.841 34.4129 72.1512 24.8882 57.3926 24.8882Z" fill="#E49542"/>
<path d="M43.3503 89.0829H24.0578C14.5881 89.0829 7.46858 81.2138 9.28003 72.7461L14.6552 47.6074C17.4769 34.4125 30.167 24.8879 44.925 24.8879H57.392C58.5424 24.8879 59.679 24.9455 60.7998 25.0587C47.5356 26.3978 36.5465 35.4442 33.9457 47.6074L28.5706 72.7461C26.7611 81.2138 33.8787 89.0829 43.3503 89.0829Z" fill="#E28424"/>
<path d="M51.1589 85.6051C56.6413 85.6051 61.0857 81.5567 61.0857 76.5628C61.0857 71.5689 56.6413 67.5205 51.1589 67.5205C45.6764 67.5205 41.232 71.5689 41.232 76.5628C41.232 81.5567 45.6764 85.6051 51.1589 85.6051Z" fill="#DD6938"/>
<path d="M55.4904 24.8879V54.2416L66.3749 64.1562L67.6634 65.3299C69.763 67.2442 70.8147 69.7516 70.8147 72.259C70.8147 74.7682 69.763 77.2774 67.6634 79.1899C63.4604 83.0184 56.6487 83.0184 52.4456 79.1899L51.1591 78.018L49.8705 79.1899C47.769 81.1041 45.0163 82.0622 42.2636 82.0622C39.509 82.0622 36.7543 81.1041 34.6547 79.1899C30.4517 75.3632 30.4517 69.1567 34.6547 65.3299L35.9413 64.1562L46.8278 54.2416V24.8879" fill="#F9F6F6"/>
<path d="M44.8506 65.3299C43.2443 69.1567 43.2443 75.3632 44.8506 79.1899C45.259 80.1641 45.7326 80.892 46.2378 81.3684C44.963 81.8321 43.6133 82.0622 42.2636 82.0622C39.509 82.0622 36.7543 81.1041 34.6547 79.1899C30.4517 75.3632 30.4517 69.1567 34.6547 65.3299L35.9413 64.1562L46.8258 54.2416V24.8879H49.5015V54.2416L45.3419 64.1562L44.8506 65.3299Z" fill="#DDDAEC"/>
<path d="M42.4363 64.4387C42.4363 68.8268 46.3415 72.384 51.1589 72.384C55.9762 72.384 59.8814 68.8268 59.8814 64.4387H42.4363Z" fill="#454045"/>
<path d="M36.1761 59.5502C37.8875 59.5502 39.2799 58.2818 39.2799 56.7229V51.1133C39.2799 49.5544 37.8875 48.2861 36.1761 48.2861C34.4647 48.2861 33.0724 49.5544 33.0724 51.1133V56.7229C33.0724 58.2818 34.4647 59.5502 36.1761 59.5502Z" fill="black"/>
<path d="M63.0377 51.1133V56.7229C63.0377 58.2818 64.43 59.5502 66.1414 59.5502C67.8528 59.5502 69.2453 58.2818 69.2453 56.7229V51.1133C69.2453 49.5544 67.8528 48.2861 66.1414 48.2861C64.43 48.2861 63.0377 49.5544 63.0377 51.1133Z" fill="black"/>
<path d="M89.1147 47.3509C88.999 46.8103 88.8656 46.2763 88.7186 45.7477C89.7214 45.028 90.6846 44.2527 91.5873 43.4302C104.137 31.999 104.137 13.3975 91.5873 1.96441C91.3099 1.71169 90.9334 1.56952 90.5409 1.56952C90.1484 1.56952 89.7719 1.71151 89.4945 1.96441L80.1057 10.5165C79.5278 11.043 79.5278 11.8964 80.1057 12.4229C80.6837 12.9494 81.6208 12.9494 82.1986 12.4229L90.5147 4.84784C92.1104 6.45509 93.4515 8.19895 94.5397 10.035C89.7644 11.4618 85.3945 13.9027 81.8166 17.1618C78.4766 20.2043 75.9053 23.8922 74.3067 27.9109C72.3727 26.8256 70.3089 25.9221 68.1456 25.2236L78.0133 16.2352C78.5913 15.7088 78.5913 14.8553 78.0133 14.3289C77.4353 13.8024 76.4982 13.8024 75.9205 14.3289L64.9174 24.3515C62.493 23.8207 59.9722 23.5394 57.3922 23.5394H44.9251C41.972 23.5394 39.0957 23.9073 36.3537 24.5974L11.5047 1.96423C11.227 1.71151 10.8507 1.56934 10.4581 1.56934C10.0656 1.56934 9.68907 1.71151 9.41163 1.96423C-3.13789 13.3973 -3.13789 31.9988 9.41163 43.4301C10.65 44.5581 11.9879 45.5918 13.3968 46.5148C13.3283 46.792 13.2624 47.0704 13.2027 47.3508L7.8275 72.4877C6.08689 80.6241 11.9179 88.5439 20.8257 90.1426C21.6277 90.2865 22.4057 89.8111 22.5638 89.0805C22.7218 88.35 22.1997 87.6413 21.3978 87.4973C14.0881 86.1853 9.3037 79.6834 10.7327 73.0032L16.1079 47.8663C18.788 35.3325 30.9071 26.2354 44.9249 26.2354H45.3472V53.6829L34.8933 63.2035L33.6077 64.3763C31.2953 66.4818 30.0217 69.2815 30.0217 72.2598C30.0217 75.238 31.2953 78.0378 33.6069 80.1424C35.9178 82.2495 38.9919 83.41 42.2626 83.41C42.3678 83.41 42.4722 83.4053 42.5768 83.4029C44.7416 85.6663 47.8246 86.9523 51.1581 86.9523C54.4921 86.9523 57.5781 85.6639 59.7455 83.3967C62.982 83.4702 66.2444 82.3876 68.7088 80.1428C71.0205 78.0371 72.2936 75.2373 72.2936 72.2587C72.2936 69.2835 71.0207 66.4843 68.7088 64.3765L56.9691 53.6829V26.2355H57.3914C71.4092 26.2355 83.5286 35.3327 86.2084 47.8665L91.5836 73.0034C92.362 76.6423 91.3241 80.3703 88.736 83.2317C86.1477 86.0931 82.3288 87.7342 78.2586 87.7342H27.017C26.1997 87.7342 25.5371 88.3378 25.5371 89.0823C25.5371 89.8268 26.1997 90.4303 27.017 90.4303H78.2586C83.2162 90.4303 87.8677 88.4314 91.0204 84.946C94.1729 81.4608 95.4372 76.92 94.489 72.4877L89.1147 47.3509ZM10.4845 4.84784L33.2113 25.5479C30.9951 26.3366 28.8916 27.3438 26.9342 28.5416C25.3597 24.2753 22.7063 20.3713 19.1826 17.1618C15.6047 13.9027 11.2343 11.4616 6.45885 10.035C7.5473 8.19895 8.88852 6.45527 10.4845 4.84784ZM14.2451 43.7277C13.2867 43.0483 12.3692 42.3113 11.5047 41.5237C2.90363 33.6891 0.794813 22.1461 5.17742 12.4919C9.65276 13.7702 13.7506 16.0269 17.0898 19.0683C20.5205 22.1933 23.0425 26.0421 24.422 30.2429C19.7831 33.7143 16.199 38.354 14.2451 43.7277ZM51.1586 84.2564C49.35 84.2564 47.6407 83.7444 46.2253 82.8121C47.9713 82.2691 49.5725 81.3674 50.9157 80.1437L51.1579 79.9235L51.3988 80.143C52.7663 81.3886 54.38 82.2756 56.0981 82.8073C54.6803 83.7427 52.9689 84.2564 51.1586 84.2564ZM51.1585 71.0359C47.6719 71.0359 44.7529 68.7802 44.0678 65.7868H58.2492C57.564 68.7802 54.645 71.0359 51.1585 71.0359ZM54.4435 55.1947L66.6162 66.2827C68.369 67.8809 69.3345 70.0033 69.3345 72.2589C69.3345 74.5172 68.3692 76.6401 66.6168 78.2366C62.9982 81.5327 57.1104 81.5327 53.4918 78.2366L52.6386 77.4594V73.6332C57.5652 72.9781 61.3612 69.1053 61.3612 64.4387C61.3612 63.6942 60.6986 63.0906 59.8812 63.0906H42.4361C41.6187 63.0906 40.9561 63.6942 40.9561 64.4387C40.9561 69.1052 44.7521 72.9781 49.6787 73.6332V77.4592L48.8239 78.2368C47.0701 79.8343 44.74 80.7142 42.2634 80.7142C39.7838 80.7142 37.4536 79.8345 35.7009 78.2364C33.9477 76.6403 32.9824 74.5179 32.9824 72.26C32.9824 70.0021 33.9479 67.8795 35.7021 66.2825L47.8742 55.1949C48.1518 54.942 48.3077 54.5992 48.3077 54.2416V26.2355H54.0104V54.2416C54.01 54.5991 54.1659 54.9418 54.4435 55.1947ZM76.8402 29.4858C78.2653 25.5829 80.6946 21.9967 83.9094 19.0683C87.2483 16.0269 91.346 13.7704 95.821 12.4921C100.203 22.1466 98.0949 33.6896 89.4945 41.5239C88.9463 42.0232 88.3733 42.5029 87.7823 42.9622C85.6172 37.5173 81.7615 32.8689 76.8402 29.4858Z" fill="black"/>
</g>
<defs>
<clipPath id="clip0">
<rect width="101" height="92" fill="white"/>
</clipPath>
</defs>
</svg>
