<svg width="101" height="92" viewBox="0 0 101 92" fill="none" xmlns="http://www.w3.org/2000/svg">
<g clip-path="url(#clip0)">
<path d="M50.5016 80.3835C56.0741 80.3835 60.5915 76.2686 60.5915 71.1927C60.5915 66.1167 56.0741 62.0018 50.5016 62.0018C44.929 62.0018 40.4116 66.1167 40.4116 71.1927C40.4116 76.2686 44.929 80.3835 50.5016 80.3835Z" fill="#DD6938"/>
<path d="M74.0423 16.3003L74.0442 16.3021L95.6375 35.9712C98.1246 38.2367 99.5205 41.3078 99.5205 44.5105V68.1843C99.5205 71.8383 97.8958 75.1451 95.2684 77.5383C92.6411 79.9316 89.0108 81.4115 84.9994 81.4115C76.9786 81.4115 70.4783 75.4903 70.4783 68.1843V65.5171V58.7062H30.5249V65.5171V68.1843C30.5249 71.8383 28.9002 75.1451 26.2709 77.5383C23.6435 79.9316 20.011 81.4115 16.0018 81.4115C7.98315 81.4115 1.48068 75.4903 1.48068 68.1843V44.5105C1.48068 41.3078 2.87673 38.2367 5.36366 35.9712L26.9587 16.3003" fill="#665E66"/>
<path d="M89.7267 80.6934C88.2444 81.1593 86.6539 81.4114 84.9992 81.4114C76.9784 81.4114 70.4781 75.4902 70.4781 68.1843V58.7059H39.9816V16.3004H74.0423L79.935 21.668V68.1843C79.935 73.9812 84.0286 78.9068 89.7267 80.6934Z" fill="#544F57"/>
<path d="M21.8042 80.3116C20.0272 81.0204 18.0636 81.4114 16.0018 81.4114C7.98315 81.4114 1.48068 75.4902 1.48068 68.1843V44.5105C1.48068 41.3079 2.87673 38.2367 5.36366 35.9712L26.9587 16.3004H38.5637L16.9684 35.9712C14.4813 38.2367 13.0854 41.3077 13.0854 44.5105V68.1843C13.0854 73.6103 16.6715 78.2727 21.8042 80.3116Z" fill="#544F57"/>
<path d="M80.3141 30.0902V44.9452C80.3141 47.4189 79.213 49.6587 77.4341 51.2811C75.6549 52.9017 73.196 53.9046 70.4802 53.9046V65.3413C70.4802 65.7744 70.4501 66.2072 70.3879 66.6367C70.0871 68.7378 69.0481 70.7693 67.2771 72.3844C63.0049 76.2758 56.0812 76.2758 51.8093 72.3844L50.5016 71.1932L49.1919 72.3844C47.0559 74.33 44.2579 75.3019 41.4599 75.3019C38.6599 75.3019 35.8601 74.33 33.7259 72.3844C31.9568 70.7729 30.92 68.745 30.615 66.6495C30.5409 66.1361 30.5107 65.6191 30.5249 65.102V53.9046C27.8091 53.9046 25.3502 52.9016 23.5691 51.2811C21.79 49.6587 20.689 47.4189 20.689 44.9452V30.0883C20.689 24.9161 22.9434 19.9577 26.9587 16.3001C28.9665 14.4714 31.3311 13.0427 33.9044 12.0726C36.4758 11.1025 39.2576 10.5891 42.0957 10.5891H58.9053C64.5834 10.5891 70.0267 12.6426 74.0423 16.3001L74.0442 16.3019C78.0596 19.9598 80.3141 24.9181 80.3141 30.0902Z" fill="#8B818E"/>
<path d="M45.9988 72.3846C46.4983 72.8396 47.0317 73.2396 47.5953 73.5885C45.7481 74.7304 43.604 75.3022 41.4599 75.3022C38.6599 75.3022 35.8601 74.3303 33.7259 72.3846C31.5236 70.3786 30.4566 67.7294 30.5249 65.1024V53.905C27.8091 53.905 25.3502 52.902 23.5691 51.2814C21.79 49.659 20.689 47.4192 20.689 44.9454V30.0885C20.689 24.9182 22.9434 19.9581 26.9587 16.3004C28.9665 14.4735 31.3311 13.0448 33.9044 12.0747C36.4758 11.1027 39.2576 10.5894 42.0957 10.5894H54.3686C51.5286 10.5894 48.7487 11.1027 46.1754 12.0747C43.602 13.0448 41.2394 14.4735 39.2316 16.3004C35.2163 19.9579 32.9619 24.9182 32.9619 30.0885V44.9454C32.9619 47.4192 34.063 49.659 35.842 51.2814C36.6703 52.0359 37.6472 52.6571 38.7262 53.1047C41.1932 54.1278 42.7978 56.3475 42.7978 58.8177V65.1024C42.7295 67.7294 43.7965 70.3786 45.9988 72.3846Z" fill="#756E78"/>
<path d="M70.3879 66.6369C70.0871 68.738 69.0481 70.7695 67.277 72.3845C63.0049 76.276 56.0812 76.276 51.8093 72.3845L50.5016 71.1934L49.1919 72.3845C48.6925 72.8395 48.1571 73.2415 47.5955 73.5885C45.7483 74.7304 43.6042 75.3021 41.4601 75.3021C38.6601 75.3021 35.8603 74.3302 33.7261 72.3845C31.957 70.7731 30.9202 68.7452 30.6152 66.6496C30.918 64.5468 31.9551 62.517 33.7261 60.902C36.1892 58.6584 39.5346 57.7084 42.7437 58.052C45.1004 58.3041 47.3848 59.2541 49.1939 60.902L50.5016 62.0931L51.8112 60.902C53.9472 58.9563 56.7452 57.9844 59.5432 57.9844C62.3432 57.9844 65.143 58.9563 67.2772 60.902C69.0461 62.5134 70.083 64.5414 70.3879 66.6369Z" fill="#E49542"/>
<path d="M47.5952 73.5885C45.7481 74.7304 43.604 75.3021 41.4599 75.3021C38.6599 75.3021 35.8601 74.3302 33.7259 72.3846C31.9568 70.7731 30.92 68.7452 30.615 66.6496C30.9178 64.5468 31.9548 62.517 33.7259 60.902C36.189 58.6584 39.5344 57.7084 42.7435 58.052C42.7796 58.3041 42.7977 58.5599 42.7977 58.8174V65.1022C42.7295 67.7294 43.7965 70.3783 45.9988 72.3844C46.4981 72.8393 47.0317 73.2395 47.5952 73.5885Z" fill="#E28424"/>
<path d="M53.302 59.6782H47.6994C45.1945 59.6782 43.1641 61.5279 43.1641 63.8094C43.1641 66.0911 45.1947 67.9406 47.6994 67.9406H53.302C55.8069 67.9406 57.8373 66.0909 57.8373 63.8094C57.8373 61.5279 55.8069 59.6782 53.302 59.6782Z" fill="#454045"/>
<path d="M35.5906 28.424H32.3387C30.4929 28.424 28.9964 29.7871 28.9964 31.4684C28.9964 33.1497 30.4929 34.5128 32.3387 34.5128H35.5906C37.4364 34.5128 38.9329 33.1497 38.9329 31.4684C38.9329 29.7869 37.4364 28.424 35.5906 28.424Z" fill="#E49542"/>
<path d="M68.6647 28.722H65.4127C63.5669 28.722 62.0705 30.0852 62.0705 31.7665C62.0705 33.4478 63.5669 34.8109 65.4127 34.8109H68.6647C70.5105 34.8109 72.0069 33.4478 72.0069 31.7665C72.0069 30.0852 70.5105 28.722 68.6647 28.722Z" fill="#E49542"/>
<path d="M33.7096 33.6199C34.2611 34.1223 35.0052 34.4493 35.8315 34.5023C35.7513 34.5097 35.6712 34.5115 35.5909 34.5115H32.3376C31.415 34.5115 30.5805 34.1717 29.9749 33.6199C29.3693 33.0681 28.9961 32.3082 28.9961 31.4678C28.9961 29.7852 30.4924 28.4222 32.3376 28.4222H35.5909C35.6712 28.4222 35.7513 28.424 35.8315 28.4314C34.0986 28.5428 32.7307 29.8583 32.7307 31.4678C32.7307 32.3082 33.1038 33.0681 33.7096 33.6199Z" fill="#E28424"/>
<path d="M66.7833 33.9194C67.3348 34.4201 68.077 34.7489 68.9053 34.8019C68.825 34.8093 68.7449 34.8111 68.6646 34.8111H65.4113C64.4887 34.8111 63.6543 34.4695 63.0487 33.9194C62.4429 33.3676 62.0698 32.6059 62.0698 31.7655C62.0698 30.0847 63.5661 28.7218 65.4113 28.7218H68.6646C68.7449 28.7218 68.825 28.7236 68.9053 28.731C67.1723 28.8424 65.8045 30.1597 65.8045 31.7655C65.8045 32.6059 66.1775 33.3678 66.7833 33.9194Z" fill="#E28424"/>
<path d="M36.8701 38.1489C35.3119 38.1489 34.0441 39.3036 34.0441 40.7231V45.8264C34.0441 47.2458 35.3119 48.4006 36.8701 48.4006C38.4283 48.4006 39.696 47.246 39.696 45.8264V40.7231C39.696 39.3038 38.4285 38.1489 36.8701 38.1489Z" fill="black"/>
<path d="M64.1313 38.1489C62.5731 38.1489 61.3054 39.3036 61.3054 40.7231V45.8264C61.3054 47.2458 62.5731 48.4006 64.1313 48.4006C65.6895 48.4006 66.9571 47.246 66.9571 45.8264V40.7231C66.9571 39.3038 65.6895 38.1489 64.1313 38.1489Z" fill="black"/>
<path d="M96.6836 35.0184L75.1704 15.422C75.144 15.3978 75.1184 15.3728 75.0917 15.3485C75.0763 15.3345 75.0606 15.3207 75.0444 15.3072C70.7266 11.3945 64.9982 9.2406 58.9063 9.2406H42.0945C36.0039 9.2406 30.2763 11.3936 25.9588 15.3051C25.943 15.3182 25.9276 15.3316 25.9124 15.3455C25.912 15.3458 25.9118 15.346 25.9114 15.3464L4.31657 35.0175C1.53295 37.5529 0 40.924 0 44.5097V68.1835C0 76.2202 7.1779 82.7583 16.0006 82.7583C17.0883 82.7583 18.1761 82.658 19.2342 82.4604C20.0347 82.3107 20.5505 81.5986 20.3862 80.8694C20.2221 80.1403 19.4399 79.6705 18.6396 79.8201C17.7768 79.9812 16.8889 80.063 16.0006 80.063C8.80949 80.063 2.95898 74.7338 2.95898 68.1835V44.5097C2.95898 41.6438 4.1842 38.9496 6.40877 36.9233L20.0313 24.5146C19.4887 26.3073 19.2083 28.1779 19.2083 30.0876V44.9445C19.2083 47.6964 20.3848 50.2848 22.5224 52.2339C24.3083 53.8586 26.5843 54.8739 29.0462 55.165L29.044 68.1835C29.044 71.3584 27.6872 74.3419 25.2236 76.5844C24.7162 77.0466 24.1568 77.4782 23.5606 77.867C22.8964 78.3004 22.7437 79.1423 23.2195 79.7473C23.5083 80.1146 23.9626 80.3102 24.4235 80.3102C24.7219 80.3102 25.0229 80.2283 25.2839 80.058C26.0107 79.5838 26.6942 79.0564 27.3154 78.4907C29.3164 76.6694 30.7178 74.4483 31.4396 72.0257C31.8118 72.4856 32.2249 72.9236 32.6778 73.336C34.813 75.2828 37.5929 76.4292 40.5809 76.6178C42.668 79.7908 46.3917 81.7305 50.501 81.7305C54.6098 81.7305 58.3334 79.7911 60.4205 76.6187C63.4057 76.4295 66.1848 75.2829 68.322 73.336C68.7763 72.9218 69.1899 72.4805 69.5636 72.0173C71.4161 78.1996 77.6321 82.759 84.9986 82.759C89.2741 82.759 93.2926 81.2434 96.314 78.4913C99.3353 75.7392 101 72.0788 101 68.1844V44.5106C101 40.9247 99.467 37.5536 96.6836 35.0184ZM50.5016 79.0354C47.9878 79.0354 45.67 78.0577 44.0605 76.399C46.3833 75.9499 48.5179 74.9025 50.2361 73.3375L50.4998 73.0978L50.762 73.3367C52.4817 74.9033 54.6175 75.9512 56.9415 76.4002C55.332 78.058 53.0147 79.0354 50.5016 79.0354ZM47.6994 66.5933C46.0144 66.5933 44.6436 65.3444 44.6436 63.8095C44.6436 62.2746 46.0144 61.026 47.6994 61.026H53.302C54.987 61.026 56.3578 62.2746 56.3578 63.8095C56.3578 65.3444 54.987 66.5933 53.302 66.5933H47.6994ZM98.041 68.1844C98.041 71.3589 96.6848 74.3425 94.2224 76.5855C91.7601 78.8285 88.4845 80.0639 84.9994 80.0639C77.8083 80.0639 71.9578 74.7347 71.9578 68.1844L71.9588 55.1648C74.4196 54.8737 76.6953 53.8583 78.4817 52.2328C80.6179 50.2846 81.7946 47.6962 81.7946 44.9445V35.068C81.7946 34.3237 81.1324 33.7203 80.3151 33.7203C79.4978 33.7203 78.8356 34.3237 78.8356 35.068V44.9445C78.8356 46.977 77.9665 48.8888 76.3893 50.327C74.8094 51.7645 72.7105 52.5564 70.4793 52.5564C69.662 52.5564 68.9998 53.1598 68.9998 53.9041L68.9988 65.3769C68.9885 67.6622 68.0065 69.8113 66.23 71.431C64.4433 73.0586 62.0682 73.9549 59.5423 73.9549C57.0163 73.9549 54.6412 73.0586 52.8548 71.431L51.9803 70.6344V69.2887H53.3022C56.6186 69.2887 59.317 66.8308 59.317 63.8097C59.317 60.7886 56.6186 58.3309 53.3022 58.3309H47.6996C44.3832 58.3309 41.6848 60.7886 41.6848 63.8097C41.6848 66.8308 44.3832 69.2887 47.6996 69.2887H49.0213V70.6337L48.1448 71.4308C46.3588 73.0577 43.9845 73.9538 41.4591 73.9538C38.931 73.9538 36.5561 73.0581 34.7714 71.4308C33.0331 69.8474 32.0606 67.7729 32.0038 65.5511C32.0042 65.5394 32.0058 53.9041 32.0058 53.9041C32.0058 53.1598 31.3435 52.5564 30.5263 52.5564C28.2938 52.5564 26.1941 51.7647 24.6152 50.3281C23.0371 48.889 22.1679 46.9771 22.1679 44.9447V30.0878C22.1679 25.2592 24.2254 20.7167 27.9622 17.2911C27.977 17.2786 27.9918 17.2658 28.0062 17.2527C31.77 13.8244 36.7735 11.9363 42.0951 11.9363H58.9069C64.1514 11.9363 69.2866 13.874 72.9956 17.2525C73.0102 17.2656 73.0248 17.2786 73.0402 17.2913C76.644 20.5943 78.6997 24.9722 78.8307 29.6254C78.8512 30.3577 79.5093 30.9386 80.3088 30.9386C80.3216 30.9386 80.3346 30.9384 80.3475 30.9382C81.1644 30.9192 81.8094 30.3005 81.7885 29.5564C81.74 27.8318 81.4601 26.1404 80.9655 24.5124L94.5918 36.9245C96.8158 38.9505 98.041 41.6447 98.041 44.5106V68.1844Z" fill="black"/>
<path d="M35.5905 27.0757H32.3386C29.6796 27.0757 27.5168 29.046 27.5168 31.4678C27.5168 33.8896 29.6798 35.8599 32.3386 35.8599H35.5905C38.2492 35.8599 40.412 33.8896 40.412 31.4678C40.412 29.046 38.249 27.0757 35.5905 27.0757ZM35.5905 33.1646H32.3386C31.3114 33.1646 30.4758 32.4034 30.4758 31.4678C30.4758 30.5322 31.3114 29.771 32.3386 29.771H35.5905C36.6174 29.771 37.4531 30.5322 37.4531 31.4678C37.4531 32.4034 36.6174 33.1646 35.5905 33.1646Z" fill="black"/>
<path d="M68.6646 27.3743H65.4127C62.7537 27.3743 60.5909 29.3445 60.5909 31.7664C60.5909 34.1882 62.7539 36.1585 65.4127 36.1585H68.6646C71.3233 36.1585 73.4862 34.1882 73.4862 31.7664C73.4862 29.3445 71.3233 27.3743 68.6646 27.3743ZM68.6646 33.4632H65.4127C64.3855 33.4632 63.5499 32.702 63.5499 31.7664C63.5499 30.8307 64.3855 30.0696 65.4127 30.0696H68.6646C69.6916 30.0696 70.5272 30.8307 70.5272 31.7664C70.5272 32.702 69.6916 33.4632 68.6646 33.4632Z" fill="black"/>
</g>
<defs>
<clipPath id="clip0">
<rect width="101" height="92" fill="white"/>
</clipPath>
</defs>
</svg>
