<svg width="101" height="92" viewBox="0 0 101 92" fill="none" xmlns="http://www.w3.org/2000/svg">
<g clip-path="url(#clip0)">
<path d="M65.8609 85.2557H35.1391C19.3267 85.2557 6.50821 73.5794 6.50821 59.176V32.8258C6.50821 18.4224 19.3267 6.74609 35.1391 6.74609H65.8609C81.6733 6.74609 94.4918 18.4224 94.4918 32.8258V59.176C94.4918 73.5794 81.6733 85.2557 65.8609 85.2557Z" fill="#8B818E"/>
<path d="M55.1125 85.2542H35.1393C19.3265 85.2542 6.50821 73.5781 6.50821 59.1761V32.825C6.50821 18.4212 19.3265 6.74512 35.1393 6.74512H55.1125C39.2997 6.74512 26.4814 18.4212 26.4814 32.825V59.1761C26.4814 73.5781 39.2997 85.2542 55.1125 85.2542Z" fill="#756E78"/>
<path d="M23.7356 52.8643C23.7356 63.1052 32.8497 71.407 44.0922 71.407H56.9076C68.1503 71.407 77.2642 63.105 77.2642 52.8643V50.892C77.2642 40.6511 68.1502 32.3494 56.9076 32.3494H44.0922C32.8495 32.3494 23.7356 40.6513 23.7356 50.892V52.8643Z" fill="#665E66"/>
<path d="M50.1907 68.5359C54.0118 68.5359 57.1094 65.7143 57.1094 62.2337C57.1094 58.7531 54.0118 55.9315 50.1907 55.9315C46.3696 55.9315 43.272 58.7531 43.272 62.2337C43.272 65.7143 46.3696 68.5359 50.1907 68.5359Z" fill="#665E66"/>
<path d="M39.9414 57.106C39.9414 62.4177 44.6686 66.7237 50.5 66.7237C56.3314 66.7237 61.0587 62.4177 61.0587 57.106H39.9414Z" fill="#8B818E"/>
<path d="M70.7125 68.6392L62.7275 50.5202C60.7227 45.9709 55.8818 42.9895 50.5 42.9895C45.1182 42.9895 40.2773 45.9709 38.2725 50.5202L30.2876 68.6392C28.7704 72.0818 30.6044 75.9931 34.3838 77.375C38.1632 78.757 42.4571 77.0865 43.9743 73.6438L50.5 58.8361L57.0256 73.6437C58.5427 77.0863 62.8366 78.7568 66.616 77.3749C70.3956 75.9931 72.2296 72.0818 70.7125 68.6392Z" fill="#F9F6F6"/>
<path d="M36.0901 68.6391L44.0751 50.5201C45.711 46.808 49.2355 44.1403 53.4012 43.2841C52.4618 43.0911 51.4901 42.9893 50.4998 42.9893C45.118 42.9893 40.2771 45.9706 38.2723 50.52L30.2874 68.6389C28.7702 72.0816 30.6042 75.9928 34.3836 77.3748C36.2762 78.0668 38.2976 77.9933 40.0347 77.3153C36.3592 75.885 34.5937 72.035 36.0901 68.6391Z" fill="#DDDAEC"/>
<path d="M62.8283 73.6438L58.4644 63.7414C57.1585 60.7782 54.0054 58.8363 50.5 58.8363L57.0255 73.6438C58.5427 77.0864 62.8366 78.757 66.616 77.375C66.6673 77.3563 66.7168 77.3353 66.7675 77.3156C65.0355 76.6396 63.5858 75.3625 62.8283 73.6438Z" fill="#DDDAEC"/>
<path d="M42.6301 51.6677C42.6301 55.6268 46.1537 58.8364 50.5 58.8364C54.8464 58.8364 58.3699 55.6268 58.3699 51.6677H42.6301Z" fill="#454045"/>
<path d="M17.2314 31.2527V56.3455C17.2314 60.3076 13.7052 63.5197 9.35534 63.5197C5.00563 63.5197 1.47931 60.3078 1.47931 56.3455V32.805C1.47931 24.8806 8.53175 18.4568 17.2312 18.4568" fill="#756E78"/>
<path d="M8.8758 61.3232C9.74575 62.1157 10.807 62.7302 11.9946 63.1057C11.17 63.3735 10.2803 63.519 9.35516 63.519C7.18129 63.519 5.21258 62.7158 3.78635 61.4185C2.36209 60.1211 1.48032 58.3278 1.48032 56.3459V32.805C1.48032 25.8367 6.93274 20.0292 14.1645 18.7301C9.53862 21.3823 6.46522 26.0757 6.46522 31.4232V56.0224C6.46522 58.0925 7.38645 59.9666 8.8758 61.3232Z" fill="#665E66"/>
<path d="M83.7687 31.2527V56.3455C83.7687 60.3076 87.2948 63.5197 91.6447 63.5197C95.9944 63.5197 99.5207 60.3078 99.5207 56.3455V32.805C99.5207 24.8806 92.4683 18.4568 83.7689 18.4568" fill="#8B818E"/>
<path d="M94.4625 63.0459C93.5907 63.3499 92.6466 63.5168 91.6595 63.5185C87.3189 63.5253 83.7687 60.157 83.7687 56.2032V31.2527C83.7886 31.2527 83.8083 31.2527 83.8283 31.2529C86.9202 31.2633 89.4046 33.5841 89.4046 36.4004V56.3455C89.4046 59.4018 91.5054 62.0127 94.4625 63.0459Z" fill="#756E78"/>
<path d="M77.2644 54.2119C78.0817 54.2119 78.7439 53.6085 78.7439 52.8642V50.8918C78.7439 39.9242 68.9483 31.0015 56.9078 31.0015H44.0924C32.0519 31.0015 22.2563 39.9242 22.2563 50.8918V52.8642C22.2563 53.6085 22.9185 54.2119 23.7358 54.2119C24.5531 54.2119 25.2153 53.6085 25.2153 52.8642V50.8918C25.2153 41.4104 33.6837 33.6968 44.0924 33.6968H56.9078C67.3167 33.6968 75.7849 41.4104 75.7849 50.8918V52.8642C75.7849 53.6085 76.4471 54.2119 77.2644 54.2119Z" fill="black"/>
<path d="M28.9888 74.309C29.9175 76.2905 31.6377 77.8236 33.8324 78.6259C34.889 79.0122 35.9978 79.208 37.1274 79.208C40.7655 79.208 43.9922 77.2207 45.3474 74.1452L48.1198 67.8549C48.9004 67.9979 49.6967 68.0705 50.5 68.0705C51.3033 68.0705 52.0996 67.9979 52.8802 67.8549L55.6526 74.145C56.5334 76.1442 58.2163 77.7113 60.3913 78.5578C61.5094 78.9928 62.6883 79.2106 63.8683 79.2106C64.9842 79.2106 66.1014 79.0158 67.1684 78.6257C70.4625 77.42 72.6415 74.5527 72.7196 71.3207C72.7376 70.5766 72.0901 69.9601 71.2731 69.9437C71.2618 69.9435 71.251 69.9434 71.2399 69.9434C70.438 69.9434 69.7792 70.5273 69.7614 71.2614C69.7093 73.4129 68.2587 75.3219 66.0657 76.1244C64.6043 76.6588 63.0019 76.6425 61.554 76.079C60.1057 75.5155 58.9854 74.472 58.3987 73.1409L52.5922 59.9662C56.7433 59.0981 59.8496 55.7082 59.8496 51.6675C59.8496 50.9233 59.1874 50.3199 58.3701 50.3199H42.6305C41.8132 50.3199 41.151 50.9233 41.151 51.6675C41.151 55.7082 44.2573 59.0981 48.4084 59.9662L42.6019 73.1409C41.6994 75.1892 39.5506 76.5126 37.1278 76.5126C36.3774 76.5126 35.6396 76.3819 34.935 76.1243C33.474 75.5902 32.3289 74.5696 31.7107 73.2505C31.0924 71.9314 31.0749 70.4718 31.6615 69.1407L39.6468 51.0224C40.5195 49.0412 42.0073 47.3617 43.9494 46.1655C45.8909 44.9697 48.1561 44.3375 50.5004 44.3375C55.3046 44.3375 59.565 46.9615 61.3542 51.0226L68.2368 66.6393C68.5413 67.3302 69.403 67.6649 70.1609 67.3878C70.9192 67.1106 71.2871 66.3259 70.9827 65.6352L64.1003 50.0187C61.8582 44.9305 56.52 41.6426 50.5 41.6426C47.5627 41.6426 44.7243 42.4346 42.2916 43.9331C39.8583 45.432 37.994 47.5365 36.9005 50.0189L28.9152 68.1368C28.0342 70.136 28.0604 72.328 28.9888 74.309ZM49.2486 65.2939L50.5 62.4542L51.7517 65.2939C50.9224 65.3976 50.0777 65.3976 49.2486 65.2939ZM44.2824 53.0154H56.7174C56.0481 55.5775 53.5146 57.4887 50.4998 57.4887C47.485 57.4887 44.9517 55.5773 44.2824 53.0154Z" fill="black"/>
<path d="M39.2932 44.64V39.7295C39.2932 38.3632 38.0729 37.2518 36.5731 37.2518C35.0733 37.2518 33.853 38.3634 33.853 39.7295V44.64C33.853 46.0064 35.0733 47.1178 36.5731 47.1178C38.0729 47.1178 39.2932 46.0064 39.2932 44.64Z" fill="black"/>
<path d="M67.147 44.64V39.7295C67.147 38.3632 65.9268 37.2518 64.4269 37.2518C62.9271 37.2518 61.7068 38.3634 61.7068 39.7295V44.64C61.7068 46.0064 62.9271 47.1178 64.4269 47.1178C65.9268 47.1178 67.147 46.0064 67.147 44.64Z" fill="black"/>
<path d="M91.823 18.933C86.4231 10.575 76.5191 5.39783 65.8611 5.39783H35.1389C24.4872 5.39783 14.5884 10.5687 9.18666 18.9177C5.71794 20.5825 2.90434 23.3137 1.32326 26.7646C1.00862 27.4516 1.36488 28.2408 2.11883 28.5274C2.30505 28.5982 2.49817 28.6318 2.68814 28.6318C3.26731 28.6318 3.81709 28.32 4.0542 27.8029C6.27995 22.9445 11.4523 19.8054 17.2312 19.8054C18.0484 19.8054 18.7106 19.202 18.7106 18.4577C18.7106 17.7134 18.0484 17.11 17.2312 17.11C16.1036 17.11 14.9955 17.2105 13.9183 17.4013C19.0261 11.5841 26.8283 8.09314 35.1389 8.09314H65.8611C74.1713 8.09314 81.9733 11.5843 87.0817 17.4015C86.009 17.2105 84.9016 17.1091 83.7685 17.1091C82.9512 17.1091 82.289 17.7125 82.289 18.4568C82.289 19.2011 82.9512 19.8045 83.7685 19.8045C91.6384 19.8045 98.041 25.6366 98.041 32.805V56.3453C98.041 59.5582 95.1716 62.1719 91.6445 62.1719C88.1174 62.1719 85.2479 59.5582 85.2479 56.3453V31.2527C85.2479 30.5084 84.5857 29.905 83.7685 29.905C82.9512 29.905 82.289 30.5084 82.289 31.2527V56.3453C82.289 61.0443 86.4858 64.8672 91.6445 64.8672C91.8631 64.8672 92.0791 64.8579 92.2939 64.8444C90.9947 69.8794 87.9688 74.4523 83.6304 77.8759C78.7017 81.765 72.391 83.9069 65.8611 83.9069H35.1389C28.6088 83.9069 22.2983 81.765 17.3696 77.8759C13.0312 74.4525 10.0053 69.8794 8.70612 64.8446C8.92173 64.8579 9.13813 64.8672 9.35631 64.8672C14.5142 64.8672 18.7106 61.044 18.7106 56.3446V31.2531C18.7106 30.5088 18.0484 29.9054 17.2312 29.9054C16.4139 29.9054 15.7517 30.5088 15.7517 31.2531V56.3446C15.7517 59.5578 12.8826 62.1719 9.35631 62.1719C7.6472 62.1719 6.04126 61.5656 4.83301 60.4636C3.62456 59.3645 2.95898 57.9016 2.95898 56.3446V32.8056C2.95898 32.697 2.96076 32.5883 2.96411 32.4796C2.98877 31.7357 2.34667 31.1143 1.52979 31.0919C0.716074 31.0676 0.0309707 31.6545 0.0063125 32.3984C0.00216992 32.5341 0 32.6699 0 32.8056V56.3446C0 58.6223 0.9739 60.7624 2.74081 62.3694C3.55611 63.1131 4.49687 63.7003 5.51831 64.1193C6.74195 70.2314 10.2397 75.8156 15.4323 79.9132C20.8987 84.2266 27.8973 86.6022 35.1389 86.6022H65.8611C73.1027 86.6022 80.1013 84.2266 85.5677 79.9132C90.7619 75.8143 94.2602 70.228 95.4829 64.1138C98.732 62.7765 101 59.7986 101 56.3453V32.805C101 26.799 97.2768 21.5711 91.823 18.933Z" fill="black"/>
</g>
<defs>
<clipPath id="clip0">
<rect width="101" height="92" fill="white"/>
</clipPath>
</defs>
</svg>
